<?xml version="1.0" encoding="UTF-8"?>
<!DOCTYPE svg PUBLIC "-//W3C//DTD SVG 1.1//EN" "http://www.w3.org/Graphics/SVG/1.1/DTD/svg11.dtd">
<!-- Creator: CorelDRAW 2021 (64-Bit) -->
<svg xmlns="http://www.w3.org/2000/svg" xml:space="preserve" width="77.2048mm" height="74.5336mm" version="1.1" style="shape-rendering:geometricPrecision; text-rendering:geometricPrecision; image-rendering:optimizeQuality; fill-rule:evenodd; clip-rule:evenodd"
viewBox="0 0 7720.48 7453.36"
 xmlns:xlink="http://www.w3.org/1999/xlink"
 xmlns:xodm="http://www.corel.com/coreldraw/odm/2003">
 <defs>
  <style type="text/css">
   <![CDATA[
    .fil1 {fill:#02180D}
    .fil0 {fill:#64FCD9}
    .fil5 {fill:#86908B}
    .fil2 {fill:#E7EAEE}
    .fil3 {fill:#FEFFFF}
    .fil4 {fill:#FFB924}
   ]]>
  </style>
 </defs>
 <g id="Layer_x0020_1">
  <metadata id="CorelCorpID_0Corel-Layer"/>
  <g id="_2343451304640">
   <path class="fil0" d="M2246.68 4406.89l52.55 53.53c120.48,137.29 109.15,351.58 204.08,506.88 56.85,93 118.63,155.05 185.41,221.1 160.17,158.4 128.32,169.1 171.91,225.05l97.32 -15.96c26.09,-108.5 128.45,-284.01 198.93,-355.95 122.51,-125.03 246.92,-65.12 204.63,195.09 43.1,-12.49 177.71,-123.64 216.69,-162.97 80.18,-80.91 248.91,-275.36 273.03,-378.9 23.94,17.54 17.49,22.37 42.42,50.8 -5.84,-102.78 -6.34,-588.88 -25.49,-637.94l0 70.67c-363.8,0 -610.53,-414.61 -349.89,-739.35 34.89,-43.48 60.32,-59.66 103.63,-90.38 -19.44,-154.42 -34.63,-299.52 -18.91,-458.19 16.48,-166.27 50.26,-245.78 112.08,-371.54 -24.06,-6.69 -110.29,-106.73 -136.89,-133.35 -139.51,-139.61 -332.03,-254.89 -531.19,-307.01 -145.96,-38.2 -317.07,-58.71 -499.2,-33.34 -223.63,31.14 -298.61,52.65 -340.93,217.86 -93.42,364.68 -21.68,790.4 220.71,1086.83 96.59,118.13 335.54,340.66 466.93,371.28l-199.65 130.55c-71.76,51.78 -114.26,94.45 -175,155.19 -57.7,57.7 -105.24,110.3 -149.86,180.35 -23.09,36.26 -41.94,65.14 -62.55,106.78 -10.77,21.78 -17.6,34.66 -28.16,56.43 -5.43,11.2 -8,18.46 -13.55,28.7l-19.05 27.79z"/>
   <path class="fil0" d="M4357.17 2214.03c10.89,64.92 11.12,55.49 65.28,80.49 225.71,104.17 354.1,289 416.52,540.2 43.66,175.69 73,558.12 -3.85,735.64 -42.68,98.57 -56.77,86.36 -142.52,132.32l-7.04 231.42c341.43,1.71 610.32,96.17 580.05,464.53 -13.8,168 -71.33,284.84 -187.69,337.74 -113.81,51.76 -338.57,31.34 -434.88,-29.54 -6.8,-37.52 15.23,-46.3 19.38,-85.24l-85.1 -6.09c-21.1,43.58 -41.36,51.08 -74.32,87.32 -107.98,118.73 -78.29,199.87 -214.09,252.05l-14.84 357.96 9.62 -50.17c0.32,-22.13 -0.66,-45.92 -0.66,-68.37 204.42,136.89 413.23,227.44 753.73,228.8 114.99,0.46 339.41,-39.83 403.2,-87.86 73.69,-55.5 104.99,-284.55 112.62,-378.44 40.16,-493.79 -259.22,-974.74 -651.47,-1184.91 -22.36,-11.98 -62.58,-32.18 -76.22,-50.78 70.86,-16.51 224.33,-135.14 282.02,-183.65 95.49,-80.28 154.51,-147.28 226.07,-248.06 167.83,-236.34 271.81,-603.08 198.03,-943.28 -49.09,-226.31 -58.87,-263.03 -403.52,-307.68 -274.48,-35.56 -554.29,50.6 -770.32,175.6z"/>
   <path class="fil1" d="M3842.72 6270.52c18.84,-19.39 56.02,-22.99 114.22,-72.87 51.28,-43.95 80.35,-33.69 164.22,-27.09 20.33,29.68 33.57,66.22 38.34,113.01 -18.37,116.37 -135.62,67.69 -232.26,69.37 -95.02,1.65 -190.06,43.97 -279.07,-7.18 13.64,-38.05 40.29,-31.82 84.68,-42.48 39.19,-9.42 72.47,-23.37 109.87,-32.76zm397.68 -5555.09l92.52 0c73.08,12.01 139.76,53.39 178.71,127 47.77,-11.13 102.52,-41.22 152.4,-42.33 0,50.3 4.86,41.63 -48.53,53.07 -21.58,4.63 -58.68,14.03 -86.94,14.66 2.14,95.91 43.18,108.15 -13.87,206.26 -44.17,75.96 -115.63,75.75 -138.53,107.01 39.14,9.12 73.14,34.99 97.21,59.26 18.43,31.92 66.19,53.61 103.83,171.8 28.19,88.5 25.41,159.29 20.34,254.04 94.29,-16.7 140.1,-17.68 119.78,99.1 -1.4,18.8 4.52,-4.22 -3.52,24.65 -6.49,23.27 -19.46,41.25 -44.67,48.59 -38.15,11.12 -75.74,-3.18 -98.24,-13.98 -5.15,61.88 -143.35,303.4 -211.34,321.74l-2.38 67.73c10.89,64.92 11.12,55.49 65.28,80.49 225.71,104.17 354.1,289 416.52,540.2 43.66,175.69 73,558.12 -3.85,735.64 -42.68,98.57 -56.77,86.36 -142.52,132.32l-7.04 231.42c341.43,1.71 610.32,96.17 580.05,464.53 -13.8,168 -71.33,284.84 -187.69,337.74 -113.81,51.76 -338.57,31.34 -434.88,-29.54 -6.8,-37.52 15.23,-46.3 19.38,-85.24l-85.1 -6.09c-21.1,43.58 -41.36,51.08 -74.32,87.32 -107.98,118.73 -78.29,199.87 -214.09,252.05l-14.84 357.96 0.49 149.98c-21.51,55.31 -10.72,245.88 -17.38,324.15 1.52,74.71 6.24,167.39 -8.02,228.6l96.55 0c50.64,12.97 323.64,7.58 402.37,10.51 131.97,4.91 259.52,12.36 390.08,23.97 236.02,-6.67 707.16,98.15 865.3,311 42.77,57.57 11.47,119.62 -33.97,155.65 -78.52,62.25 -223.02,97.77 -343.76,121.91 -72.37,14.46 -128.36,21.14 -205.59,31.47 -57.58,7.7 -151.45,19.56 -214.21,22.86 -142.65,7.49 -312.1,-0.31 -450.03,15.69 -47.34,5.48 -76.46,-2.25 -110.04,-6.02l-582.82 7.37c-51.21,-0.47 -71.94,4.69 -110.66,7.88 -35.97,2.96 -72.54,-2.34 -108.38,1.68l-678.57 32.63 -15.9 0 -349.4 0c-405.88,-4.9 -939.6,-37.57 -1060.9,-216.33 -76.78,-113.14 -23.99,-231.7 60.88,-327.73 147.03,-166.38 516.58,-209.47 730.32,-209.47l0 -93.14c12.25,-6.88 8.73,-4.15 25.4,-6.94l332.26 -0.44c-19.97,-57.14 -55.35,-108.55 -86.82,-144.98 -59.15,-68.44 -79.93,-31.88 -186.17,-48.54l-8.47 6.17 -17.66 -7.74c-6.43,-2.61 -12.34,-4.5 -18.44,-6.96 -13.33,-5.38 -16.07,-6.45 -29.04,-13.3 -48.83,-25.79 -102.78,-75.86 -133.31,-120.68l-111.71 -223.85c-12.66,-26.43 -15.56,-27.18 -31.14,-48.07 -7.06,-9.47 -10.27,-16.27 -18.04,-24.26 -20.94,-21.54 -3.43,-4.99 -21.66,-15.48 -42.36,-43.38 -117.37,-71.75 -177.69,-98.57 -74.11,-32.96 -109.55,-52.29 -164.73,-109.96 -85.08,-132.81 -104.02,-388.74 -37.91,-558.8 11.34,-58.1 108.7,-151.66 169.42,-160.22 55.22,-7.78 100.74,6.13 137.44,22.03 25.99,11.25 78.09,45.5 94.52,61.99l52.55 53.53c120.48,137.29 109.15,351.58 204.08,506.88 56.85,93 118.63,155.05 185.41,221.1 160.17,158.4 128.32,169.1 171.91,225.05 19.13,42.52 20.96,114.41 11.03,164.41 -7.22,36.36 -14.13,44.31 -21.35,72.66 -6.88,27.05 5.97,38.09 15.89,60.24 11.46,23.6 34.86,57.56 40.9,73.19l5.46 -81.66c-4.45,-86.08 17.74,-245.93 45.39,-304.8 26.09,-108.5 128.45,-284.01 198.93,-355.95 122.51,-125.03 246.92,-65.12 204.63,195.09 -13.9,92.7 -130.19,116.17 -189.1,201.71 -63.27,91.87 -25.84,213.44 -117.05,262.19 -16.41,7.64 -10.33,8.53 -26.78,8.89 -32.84,0.74 -9.96,13.9 -28.98,-9.25 94.79,-8.65 96.33,-104.72 116.84,-191.17 48.97,-206.39 260.93,-162.41 240.21,-354.95 -7.97,-73.97 -42.57,-187.82 -126.38,-157.99 -71.22,25.35 -204.74,247.21 -246.89,354.85 -60.88,155.46 -55.26,369.91 -55.03,547.24 20.69,-13.55 10.86,8.68 13.76,-34.31 6.68,-98.82 -9.17,-206.23 19.12,-331.62 20.45,-90.68 51.15,-136.01 90.57,-205.75 6.03,-10.66 8.98,-18.43 18.35,-32.47 7.14,-10.7 5.04,-7.11 11.92,-15.75l9.46 -10.39c-31.32,89.93 -122.11,202.41 -121.62,359.15 -15.13,46.43 -8.87,210.4 -7.58,271.06l220.03 0.34 160.87 -1.38 0 110.06c162.91,0 313.62,2.67 465.67,9.44l159.21 -3.21c-41.47,-40.69 -36.52,-281.65 -40.24,-361.47 -6.01,-128.62 -14.3,-261.38 -15.74,-389.82 -3.87,-51.74 -10.55,-69.4 -10.21,-126.89 0.24,-41.32 2.97,-95.15 -0.34,-135.13 -6.59,-79.72 -8.31,-162.43 -7.93,-254.45 -5.84,-102.78 -6.34,-588.88 -25.49,-637.94l0.77 -174.86 -9.48 -245.54c-16.17,-12.05 -34.65,-17.93 -54.48,-29.67 -24.17,-14.31 -33.6,-26.59 -55.34,-39.16 -16.36,-22.37 -28.08,-28.19 -46.04,-54.45 -15.58,-22.76 -24.06,-40.13 -35.93,-65.68 -14.37,-30.93 -43.62,-111.91 -45.76,-149.7 -19.44,-154.42 -34.63,-299.52 -18.91,-458.19 16.48,-166.27 50.26,-245.78 112.08,-371.54 70.77,-122.47 175.84,-209.19 306.6,-261.36 122.57,-48.91 101.01,-67.28 14.44,-178.91 -33.59,-65.63 -108.98,-148.12 -132.22,-249.13 -75.09,17.81 -143.18,-9.41 -162.11,-66.37 -29.9,-89.96 26.38,-126.87 110.12,-113.81 -8.07,-100 -6.8,-138.72 17.77,-231.09 14.55,-98.42 155.78,-223 252.49,-245.53l-27.84 -14.5c-53.31,-25.22 -100.27,-49.52 -107.63,-137.9 -21.76,10.44 -51.59,16.93 -84.66,16.93 16.27,-22.21 10.48,-15.92 41.38,-26.35 78.85,-26.62 25.65,-32.31 72.81,-130.39 45.11,-93.82 132.83,-150.51 224.18,-164.99zm-221.93 5372.04l1.17 -35.98c25.47,-14.85 68.58,-9.09 97.86,-5.87l4.05 86.26 -97.6 2.58 -5.48 -46.99zm-364.13 195.43c-27.33,31.65 -58.03,24.71 -46.23,86.41 90.52,66.39 231.53,6.34 343.27,14.57 138.3,10.17 234.46,28.22 231.06,-139.68 -16.82,-86.12 -25.95,-98.45 -25.95,-196.91 357.46,-4.56 1184.07,28.06 1521,157.06 91.46,35.01 377.74,195.51 272.87,246.48 -88.29,158.76 -847.96,193.79 -973.06,197.63 -192.16,5.91 -384.49,3.27 -576.11,-3.33 -184.81,-6.37 -381.73,12.32 -566.93,22.84 -307.92,17.5 -1979.79,132.89 -2082.67,-201.32 -55.3,-56.56 34.64,-177.88 61.69,-211.37 154.03,-190.7 479.67,-216.88 720.4,-209.1 11.9,36.37 17.57,93.18 11.29,129.32 33.36,50.4 19.29,289.34 314.1,323.97 92.88,10.9 195.19,5.52 276.36,-31.11 50.49,-22.79 59.86,-33.49 93.23,-67.93 30.97,-31.96 43.48,-75.43 67.63,-94.01 0.6,-32.79 19.86,-83.13 27.05,-124.7 7.89,-45.7 11.75,-91.45 14.39,-138.39l645.13 3.91c45.85,161.24 -249.59,237.18 -328.52,235.66zm-945.82 -359.64l359.26 0.22 146.18 -0.7 91.47 1.8 0.05 78.52 -20.11 3.35 -51.97 1.62 71.38 41.36c-3.72,167.35 -6.38,254.79 -101.65,351 -68.37,69.04 -220.27,110.21 -342.54,80.72 -116.97,-17.27 -193.24,-80.6 -235.29,-162.28 -36.4,-70.68 -76.61,-270.78 -10.86,-315.73l-35.65 -2.25 2.05 -77.59 127.68 -0.04zm197.34 -39.75c-4.8,-45.63 -101.88,-165.02 -136.81,-183.18 -86.55,-44.99 -247.32,76.46 -398.3,-261.89 -45.25,-101.42 -64.66,-133.4 -128.22,-201.78 -58.18,-62.59 -131.81,-74.22 -209.03,-121.22 -76.44,-46.53 -119.94,-82.3 -160.63,-169.55 -117.5,-251.97 0.84,-696.48 297.86,-560.09 292.26,134.22 178.92,509.66 419.61,731.56l82.47 86.97c45.51,45 15.01,3.24 79.58,81.36 55.49,67.13 104.3,131.43 101.51,230.45 -2.04,72.39 -20.02,88 -31.38,140.46 -10.64,49.14 94.87,130.15 83.34,226.91zm1703.62 -1305.71c-7.95,-37.59 -7.79,-56.32 7.92,-90.53 30.31,-4.5 70.48,11.35 95.07,22.22l-32.07 85.34c-34.43,-1.62 -46.95,-3.34 -70.92,-17.03zm-307.94 343.98c-2.51,-94.43 34.58,-263.6 60.13,-351.43 49.06,-168.69 71.19,-171.43 221.31,-103.96l-3.69 118.17c-136.1,65.88 -185.34,301.23 -277.75,337.22zm10.4 -613.38c44.57,28.36 61.16,52.45 135.7,69.28 160.01,36.11 473.56,-36.52 520.37,71.55 -43.09,56.68 -172.26,18.51 -244.42,15.63 -76.05,-3.03 -146.34,-42.62 -207.05,-63.31 -228.52,-77.88 -166.58,234.32 -219.29,311.94l14.69 -405.09zm543.45 -350.84c159.17,12.11 308.6,91.41 344.06,214.91 63.08,133.97 85.3,640.97 -420.06,549.09 -18.02,-3.27 -42.45,-8.25 -61.04,-12.82 -7.25,-1.78 -19.93,-4.99 -26.72,-7.4l-31.52 -15.05c20.96,-52.45 70.67,-168.96 105.52,-200.99 79.95,13.29 195.68,37.75 232.99,-30.35 -19.79,-132.83 -380.82,-73.27 -500.96,-94.41 -300.73,-52.93 -131.69,-308.66 -119.9,-360.44 -34.52,24.81 -59.66,68.13 -79.88,117.38 -28.66,-36.11 -69.79,-91.67 -107.14,-109.12 27.17,60.32 87.42,83.38 87.23,177.98 -0.39,194.98 -24.17,571.63 -33.04,779.51 -11.1,260.22 -22.2,794.66 -43.69,1018.72 -53.05,13.65 -165.22,11.26 -221.41,4.52 -40.52,-405.87 -48.71,-1158.76 -64.64,-1624.38 -3.09,-90.52 -6.26,-180.68 -9.8,-270.91 -2.99,-76.05 -15.37,-205.47 -8.05,-275.8 208.16,51.75 541.82,57.34 740.44,-3.1l-2.96 118.34 -77.88 20.99 73.23 4.08c14.8,38.22 -3.89,26.79 33.86,37.21 31.76,-23.37 10.57,-9.62 25.4,-41.85l165.96 3.89zm-965.71 -269.46c182.61,4.14 303.81,-130.22 341.08,-281.48 12.26,-49.72 16.45,-124.97 35.33,-167.93 41.19,77.54 19.97,136.58 135.17,287.96 102.42,134.59 137.25,117.92 240.7,177.54l-2.8 52.09c-195.04,86.1 -528.65,53.31 -746.95,9.11l-2.53 -77.29zm319.05 -849.64c31.61,200.39 29.54,528.34 -87.48,695.6 -99.01,141.54 -352.04,187.72 -458.21,-132.78 -81.62,-246.4 -55.94,-762.26 173.94,-964.24 109.04,-95.82 153.7,-95.39 249.51,-144.87 39.61,25.82 37.94,48.39 120.41,50.34 56.91,1.34 89.07,-22.66 108.8,-53.42 32.63,21.46 27.32,19.3 75.96,36.23 121.72,42.38 219.53,120.01 289.72,226.88 142.41,216.81 184.52,613.99 143.98,872.36 -77.04,490.95 -519.32,97.02 -537.57,-253.61 -3.86,-74.18 19.52,-307.46 54.5,-353.19 60.47,89.73 25.19,315.46 62.2,400.92 36.15,83.45 135.14,223.61 256.23,201.08l-51.1 -28.86c43.4,-262.62 58.11,-235.01 13.33,-526.57 -4.54,-29.54 -8.75,-57.04 -13.89,-87.17 -6.92,-40.57 -3.66,-44.81 -29.7,-59.42 -22.28,37 113.5,497.72 -16.93,645.07 -43.14,-21.27 -71.07,-57.98 -98.39,-110.73 -37,-71.43 -26.8,-95.33 -30.88,-179.29 -4.52,-93.12 -7.03,-301.18 -99.33,-313.59 -40.7,6.75 -47.96,82.2 -54.33,110.66 -1.67,7.46 -3.44,14.77 -6.08,22.02 -5.7,15.6 -5.44,14.02 -11.44,22.4 -5.18,-62.25 -2.46,-139.44 -55.15,-155.89 -73.68,2.23 -92.77,374.04 -135.66,429.17 -22.14,28.47 -73.01,71.13 -105.08,87.51 -20.11,-70.92 -57.06,-121.23 -68.33,-210.05 -11.61,-91.53 5.34,-180.1 -2.08,-267.93 -21.85,27.75 -22.91,96.29 -25.57,129.69 -18.14,228.19 5.66,194.08 68.22,372.81l-84.51 64.96c84.09,-12.46 237.13,-127.49 265.04,-171.84 38.22,-60.72 46.05,-291.74 89.87,-354.25zm-55.18 -649.16c99.45,29.53 74.84,23.37 166.39,-7.08l-5.4 80.18c-64.33,40.63 -115.4,47.91 -190.89,18.6 11.61,-27.95 25.47,-55.02 29.9,-91.7zm-294.14 -500.79l27.12 109.64c-80.48,-0.69 -118.41,-22.17 -98.09,-107l70.97 -2.64zm736.01 25.91c5.45,-14.91 1.84,-8.96 9.43,-16.98 12.05,-12.73 58.22,-25.39 74.86,-7.48 1.11,1.2 57.08,107.92 -98.03,104.91l13.74 -80.45zm-704.09 -68.08c151.71,0.84 291.63,-75.11 340.8,-203.49 22.48,18.15 34.12,43.28 59.23,68.47 95.53,95.84 130.96,108.28 274.53,81.76 3.61,159.32 -32.45,256.39 -101.33,362.28 -36.87,56.67 -154.13,216.43 -219.68,228.48 -141.06,25.94 -323.48,-370.3 -353.55,-537.5zm-11.77 -78.11c1.2,-114.97 39.89,-197.6 97.2,-261.45 184.32,-205.36 501.31,-139.43 575.82,171.86l3.69 70.16c-78.72,35.29 -145.82,30.69 -201.56,-24.44 -23.65,-23.39 -42.32,-43.78 -62.12,-73.63 -17.05,-25.71 -32.45,-61.42 -60.36,-74.41 -39.19,23.49 -36.25,105.8 -126.49,177.98 -49.19,39.35 -173.08,70.59 -203.79,63.55 -22.5,-5.15 -7.75,6.24 -19.91,-13.42 23.37,-34.58 126.99,-30.38 201.66,-89.31 43.56,-34.37 94.53,-109.27 100.67,-183.63 -39.88,31.75 -52.65,103.26 -122.53,153.27 -37.17,26.61 -121.3,81.61 -182.28,83.47zm337.14 -795.93c122.15,-31.38 240.35,55.06 265.92,149.84 36.28,134.49 -72.53,225.43 -191.24,231.71 -388.74,20.54 -334.26,-314.86 -74.68,-381.55z"/>
   <path class="fil2" d="M1751.59 6466.65c102.88,334.21 1774.75,218.82 2082.67,201.32 185.2,-10.52 382.12,-29.21 566.93,-22.84 191.62,6.6 383.95,9.24 576.11,3.33 125.1,-3.84 884.77,-38.87 973.06,-197.63 -31.96,-1.17 -140.06,-38.81 -191.73,-49.01 -421.69,-83.26 -1142.52,-110.78 -1560.27,-117.53 -0.25,-72.09 1.11,-18.38 -15.92,-40.09 3.4,167.9 -92.76,149.85 -231.06,139.68 -111.74,-8.23 -252.75,51.82 -343.27,-14.57 -11.8,-61.7 18.9,-54.76 46.23,-86.41l-342.47 6.33 -13.95 27.45 -1.63 -10.26c-24.15,18.58 -36.66,62.05 -67.63,94.01 -33.37,34.44 -42.74,45.14 -93.23,67.93 -81.17,36.63 -183.48,42.01 -276.36,31.11 -294.81,-34.63 -280.74,-273.57 -314.1,-323.97 -1.56,52.14 13.82,100.42 22.94,152.37 -145.38,8.32 -298.73,25.51 -441.65,47.14 -66.6,10.08 -136.73,20.7 -199.87,35.52 -71.29,16.73 -116.81,38.63 -174.8,56.12z"/>
   <path class="fil3" d="M5199.45 4172.47c-7.91,-7.75 -4.27,-2.57 -14.82,-14.88 -0.17,-0.2 -6.14,-7.85 -7.67,-9.91 -58.05,-77.97 -121.44,-118.67 -218.01,-154.34 -15.92,-5.88 -32.62,-12.31 -50.75,-16.75 -10.7,-2.62 -16.48,-2.42 -26.84,-5.79l-19.73 -9.18c-1.18,-3.04 -4.15,-2.72 -6.24,-4.06l-165.96 -3.89c-14.83,32.23 6.36,18.48 -25.4,41.85 -37.75,-10.42 -19.06,1.01 -33.86,-37.21l-73.23 -4.08 77.88 -20.99 2.96 -118.34c-198.62,60.44 -532.28,54.85 -740.44,3.1 -7.32,70.33 5.06,199.75 8.05,275.8 3.54,90.23 6.71,180.39 9.8,270.91 15.93,465.62 24.12,1218.51 64.64,1624.38 56.19,6.74 168.36,9.13 221.41,-4.52 21.49,-224.06 32.59,-758.5 43.69,-1018.72 8.87,-207.88 32.65,-584.53 33.04,-779.51 0.19,-94.6 -60.06,-117.66 -87.23,-177.98 37.35,17.45 78.48,73.01 107.14,109.12 20.22,-49.25 45.36,-92.57 79.88,-117.38 -11.79,51.78 -180.83,307.51 119.9,360.44 120.14,21.14 481.17,-38.42 500.96,94.41 -37.31,68.1 -153.04,43.64 -232.99,30.35 -34.85,32.03 -84.56,148.54 -105.52,200.99l31.52 15.05c6.79,2.41 19.47,5.62 26.72,7.4 18.59,4.57 43.02,9.55 61.04,12.82 505.36,91.88 483.14,-415.12 420.06,-549.09z"/>
   <path class="fil3" d="M4208.73 2838.46c-43.82,62.51 -51.65,293.53 -89.87,354.25 -27.91,44.35 -180.95,159.38 -265.04,171.84l84.51 -64.96c-62.56,-178.73 -86.36,-144.62 -68.22,-372.81 2.66,-33.4 3.72,-101.94 25.57,-129.69 7.42,87.83 -9.53,176.4 2.08,267.93 11.27,88.82 48.22,139.13 68.33,210.05 32.07,-16.38 82.94,-59.04 105.08,-87.51 42.89,-55.13 61.98,-426.94 135.66,-429.17 52.69,16.45 49.97,93.64 55.15,155.89 6,-8.38 5.74,-6.8 11.44,-22.4 2.64,-7.25 4.41,-14.56 6.08,-22.02 6.37,-28.46 13.63,-103.91 54.33,-110.66 92.3,12.41 94.81,220.47 99.33,313.59 4.08,83.96 -6.12,107.86 30.88,179.29 27.32,52.75 55.25,89.46 98.39,110.73 130.43,-147.35 -5.35,-608.07 16.93,-645.07 26.04,14.61 22.78,18.85 29.7,59.42 5.14,30.13 9.35,57.63 13.89,87.17 44.78,291.56 30.07,263.95 -13.33,526.57l51.1 28.86c-121.09,22.53 -220.08,-117.63 -256.23,-201.08 -37.01,-85.46 -1.73,-311.19 -62.2,-400.92 -34.98,45.73 -58.36,279.01 -54.5,353.19 18.25,350.63 460.53,744.56 537.57,253.61 40.54,-258.37 -1.57,-655.55 -143.98,-872.36 -70.19,-106.87 -168,-184.5 -289.72,-226.88 -48.64,-16.93 -43.33,-14.77 -75.96,-36.23 -19.73,30.76 -51.89,54.76 -108.8,53.42 -82.47,-1.95 -80.8,-24.52 -120.41,-50.34 -95.81,49.48 -140.47,49.05 -249.51,144.87 -229.88,201.98 -255.56,717.84 -173.94,964.24 106.17,320.5 359.2,274.32 458.21,132.78 117.02,-167.26 119.09,-495.21 87.48,-695.6z"/>
   <path class="fil3" d="M2508.41 5459.45c50.29,-46.01 216.84,108.53 158.78,159.48 -56.75,49.8 -181.62,-23.93 -174.28,-128.73 2.73,-38.92 7.44,-23.37 15.5,-30.75zm72.26 -145.74c-16.06,-13.35 -26.4,-22.04 -38.17,-38.57 -37.45,-52.59 -3.99,-56.42 -3.37,-57.25 38.43,-13.01 74.91,30.93 91.31,54.24 19.32,27.46 53.32,55.17 48.28,95.85 -39.44,5.68 -72.6,-33.12 -98.05,-54.27zm-436.21 -276.78c74,-12.65 143.65,122.77 144.69,127.73 7.56,35.77 -0.97,13.92 -4.8,21.17 -28.51,12.98 -164.14,-82.09 -139.89,-148.9zm236.07 23.02c-70.65,-41.2 -50.68,-126.71 26.86,-64.35 35.07,28.21 78.46,85.49 84.37,135.7 -26.13,-2.96 -25.85,-0.98 -45.67,-13.33l24.43 -7.3c-15.9,-34.33 -75.28,-111.42 -113.38,-115.07 -2.51,28.76 10.87,36.59 23.39,64.35zm-451.79 -272.77c40.6,5.96 71.5,43.73 94.31,67.81 28.19,29.77 43.45,72.27 26.79,120.98 -99.05,19.62 -201.99,-176.87 -136.43,-193.87 28.51,-7.39 14.7,4.74 15.33,5.08zm339.01 -202.06c19.06,21.28 83.1,94.84 47.8,131.67 -65.82,68.67 -184.44,-117.57 -176.85,-190.82 2.95,-28.49 4.24,-14.21 7.88,-21.02 50.42,-13.27 96.88,53.06 121.17,80.17zm638.11 1298.39c11.53,-96.76 -93.98,-177.77 -83.34,-226.91 11.36,-52.46 29.34,-68.07 31.38,-140.46 2.79,-99.02 -46.02,-163.32 -101.51,-230.45 -64.57,-78.12 -34.07,-36.36 -79.58,-81.36l-82.47 -86.97c-240.69,-221.9 -127.35,-597.34 -419.61,-731.56 -297.02,-136.39 -415.36,308.12 -297.86,560.09 40.69,87.25 84.19,123.02 160.63,169.55 77.22,47 150.85,58.63 209.03,121.22 63.56,68.38 82.97,100.36 128.22,201.78 150.98,338.35 311.75,216.9 398.3,261.89 34.93,18.16 132.01,137.55 136.81,183.18z"/>
   <path class="fil0" d="M5341.36 3721.1c2.4,3.58 151.91,162.12 209.36,239.37 41.34,55.6 147.37,217.75 163.17,285.56 77.58,-51.95 173.97,-141.34 232.3,-216.44 37.6,-48.41 62.91,-78.95 95.26,-133.33 102.7,-172.59 111.89,-202.35 -90.42,-463.1 -51.25,-66.07 -161.64,-180.12 -237.14,-220.06 -12.37,25.78 -20.23,50.67 -33.72,76.34 -13,24.74 -24.69,42.94 -39.86,70.21 -58.64,105.39 -208.7,301.01 -298.95,361.45z"/>
   <path class="fil0" d="M1607.57 3704.16c0,147.74 158.92,338.44 272.86,438.34 64.23,56.32 30.66,40.31 125.07,103.53 28.45,-122.11 182.7,-309.33 261.2,-407.66 34.6,-43.34 80.98,-71.96 111.33,-117.27 -79.92,-53.52 -61.33,-53.5 -112.08,-108.05 -84.24,-90.54 -236.11,-295.48 -260.45,-399.95 -27.34,7.29 -10.35,1.54 -32.26,18.54 -98.18,76.15 -113.57,94.92 -198.24,191.22 -35.21,40.04 -167.43,224.48 -167.43,281.3z"/>
   <path class="fil0" d="M5815.49 4533.89c1.54,69.15 33.87,154.85 33.87,372.54 0,96.83 -18.61,163.86 -25.4,245.53 138.3,-11.51 601.13,-224.7 601.13,-372.53 0,-174.33 -117.17,-554.79 -211.67,-618.07 -8.81,32.99 -57.91,75.35 -81.08,105.18 -30.31,39.02 -58.43,68.16 -94.66,100.07 -59.97,52.81 -155.07,131.77 -222.19,167.28z"/>
   <path class="fil0" d="M5849.36 2561.16c0,190.44 -33.87,311.48 -33.87,364.07 43.7,11.67 183.63,128.05 218.09,162.91 34.14,34.52 63.79,62.31 97.47,97.27 31.41,32.62 56.81,81.1 90.84,103.89 81.09,-59.41 203.2,-436.51 203.2,-601.14 0,-167.05 -474.79,-378.18 -601.13,-381 6.56,78.91 25.4,136.21 25.4,254z"/>
   <path class="fil0" d="M1294.3 2679.7c0,106.95 33.77,261.46 65.16,341.24 26.16,66.49 94.16,236.21 138.04,268.36 27.49,-18.41 58.35,-71.09 86.62,-99.65 65.63,-66.32 243.34,-244.01 319.78,-264.42 -0.86,-38.75 -15.57,-92.86 -21.91,-138.95 -19.51,-141.7 -17.84,-344.85 13.44,-479.12 -120.84,2.69 -601.13,216.12 -601.13,372.54z"/>
   <path class="fil3" d="M4182.44 6244.2c17.03,21.71 15.67,-32 15.92,40.09 417.75,6.75 1138.58,34.27 1560.27,117.53 51.67,10.2 159.77,47.84 191.73,49.01 104.87,-50.97 -181.41,-211.47 -272.87,-246.48 -336.93,-129 -1163.54,-161.62 -1521,-157.06 0,98.46 9.13,110.79 25.95,196.91z"/>
   <path class="fil0" d="M1883.21 5041.89c-85.08,-132.81 -104.02,-388.74 -37.91,-558.8 -23.15,9.1 -60.59,-26.48 -95.7,-57.36 -74.39,-65.4 -148.84,-134.28 -210.97,-212.36 -18.67,-23.47 -14.83,-25.93 -41.13,-43.54l-79.26 140.87c-12.89,26.45 -21.5,49.85 -33.19,76.88 -42.82,99.08 -121.77,373.11 -76.76,462.52 58.35,115.89 450.69,315.75 587.14,318.79 -0.8,-35.86 -20.83,-102.63 -12.22,-127z"/>
   <path class="fil0" d="M2496.56 1748.36c159.83,0 210.74,-21.39 405.71,0.7 35.78,4.05 83.54,15.44 119.23,16.24 69.43,-103.69 177.57,-269.37 279.4,-347.14l110.06 -101.6c-126.97,-67.18 -341.59,-152.4 -533.4,-152.4 -72.18,0 -112.13,51.85 -144,93.06 -115.4,149.23 -190.97,293.57 -237,491.14z"/>
   <path class="fil0" d="M4473.37 1240.36c18.43,31.92 66.19,53.61 103.83,171.8 28.19,88.5 25.41,159.29 20.34,254.04 94.29,-16.7 140.1,-17.68 119.78,99.1 124.81,-42.63 378.21,-16.94 505.51,-16.94 -44.53,-191.12 -124.36,-339.37 -226.15,-476.58 -61.52,-82.92 -95.57,-122.8 -233.71,-101.81 -114.99,17.48 -195.88,35.74 -289.6,70.39z"/>
   <path class="fil0" d="M3808.9 6016.53l159.21 -3.21c-41.47,-40.69 -36.52,-281.65 -40.24,-361.47 -6.01,-128.62 -14.3,-261.38 -15.74,-389.82 -36.45,-21.7 -17.77,-27.59 -52.43,-50.8 -4.43,2.96 -153.58,148.93 -237.06,211.67 -46.1,34.65 -226.71,155.77 -287.88,160.86 2.77,33.28 20.56,47.89 38.57,71.5 82.43,108.05 180.82,198.85 293.3,273.97 24.52,16.37 42.11,27.05 67.6,42.46 15.86,9.6 19.84,11.69 38.08,21.12l36.59 23.72z"/>
   <path class="fil0" d="M4036.11 2078.56c-33.59,-65.63 -108.98,-148.12 -132.22,-249.13 -75.09,17.81 -143.18,-9.41 -162.11,-66.37 -29.9,-89.96 26.38,-126.87 110.12,-113.81 -8.07,-100 -6.8,-138.72 17.77,-231.09 -162.53,0 -525.49,341.59 -551.84,440.27 186.56,98.72 329.39,171.1 480.5,323.83 21.36,21.59 37.4,41.12 61.37,57.17 51.64,-34.58 116.77,-116.2 176.41,-160.87z"/>
   <path class="fil3" d="M4129.73 1958.19c96.15,1.53 50.33,48.44 110.74,47 53.81,-1.28 26.03,-50.91 109,-46.1 -5.64,22.16 -89.86,142.57 -174,57.61 -9.06,-9.15 -17.84,-16.29 -25.99,-24.45 -27.18,-27.22 -6.15,1.26 -19.75,-34.06zm225.29 -87.06c58.13,-25.06 115.68,-18.45 98.57,57.65 -45.93,23.78 -56.17,28.06 -101.87,-8.97l3.3 -48.68zm-329.07 -0.04c56.87,-24.95 114.21,-18.22 97.29,57.46 -53.4,28.11 -118.08,25.76 -97.29,-57.46zm204 5.55c29.46,-14.37 30.45,-32.16 69.3,-18.67 -7.29,24.2 -15.65,28.77 -41.83,42.96 -24.42,13.23 -34.08,15.25 -60,9.61 -2.87,-41.05 12.45,-70.35 13.12,-119.81 0.29,-21.35 -1.8,-47.61 -0.61,-68 2.07,-35.42 0.69,-27.61 20.98,-38.63 23.38,45.71 5.74,135.94 -0.96,192.54zm71.82 -126.67c35.67,7.04 55.48,59.18 107.81,23.81 33.69,-22.77 -4.83,-10.91 38.12,-27.02 18.85,92.94 -164.18,96.51 -145.93,3.21zm-292.87 5.38c7.21,-2.94 1.69,-7.01 16.88,-2.96 22.42,5.98 52.8,56.13 105.14,21.77 30.84,-20.25 -3.11,-10.78 36.42,-26.84 14.43,68.12 -90.34,88.84 -134.01,55.69 -12.42,-9.43 -32.74,-32.97 -24.43,-47.66zm301.86 -74.72c15.66,-35.74 66.12,-27.51 97.69,-15.95 39.06,14.3 101.52,16.8 117.86,24.42 -2.71,2.96 9.64,15.1 -48.44,16.55 -26.78,0.66 -34.32,-1.04 -58.13,-9.01 -47.13,-15.79 -90.38,-0.9 -108.98,-16.01zm-347.81 8.47c19.99,-9.07 71.46,-7.17 112.34,-21.86 18.01,-6.47 33.33,-11.46 54.91,-10.6 33.07,1.31 39.22,4.33 48.19,23.99 -24.72,20.5 -50.63,-4.52 -102.16,13.37 -27.62,9.6 -57.03,16.42 -88.91,9.93 -26.59,-5.41 -20.1,-10.11 -24.37,-14.83zm-71.62 -42.76c30.07,167.2 212.49,563.44 353.55,537.5 65.55,-12.05 182.81,-171.81 219.68,-228.48 68.88,-105.89 104.94,-202.96 101.33,-362.28 -143.57,26.52 -179,14.08 -274.53,-81.76 -25.11,-25.19 -36.75,-50.32 -59.23,-68.47 -49.17,128.38 -189.09,204.33 -340.8,203.49z"/>
   <path class="fil3" d="M1751.59 6466.65c57.99,-17.49 103.51,-39.39 174.8,-56.12 63.14,-14.82 133.27,-25.44 199.87,-35.52 142.92,-21.63 296.27,-38.82 441.65,-47.14 -9.12,-51.95 -24.5,-100.23 -22.94,-152.37 6.28,-36.14 0.61,-92.95 -11.29,-129.32 -240.73,-7.78 -566.37,18.4 -720.4,209.1 -27.05,33.49 -116.99,154.81 -61.69,211.37z"/>
   <path class="fil0" d="M4345.71 6015.56c50.64,12.97 323.64,7.58 402.37,10.51 131.97,4.91 259.52,12.36 390.08,23.97 -13.56,-9.22 -5.4,-9.08 -42.33,-9.08 5.36,-23.03 80.94,-140.99 127,-338.67 -178.25,14.84 -210.29,25.89 -396.56,7.09 -40.28,-4.06 -80.6,-15.55 -128.38,-15.55 -34.58,65.35 -92.72,141.88 -141.75,196.91 -17.28,19.4 -20.82,27.98 -38.06,46.61 -15.05,16.26 -26.75,26.13 -42.29,42.37 -47.59,49.69 -40.57,35.84 -130.08,35.84z"/>
   <path class="fil2" d="M2614.44 6003.14c-65.75,44.95 -25.54,245.05 10.86,315.73 42.05,81.68 118.32,145.01 235.29,162.28 8.21,-13.93 38.23,-27.02 54.05,-39.1 101.62,-77.58 136.56,-270.77 63.96,-400.46 -46.73,-83.46 -60.19,-72.68 -101.85,-108.35 63.03,-4.28 133.43,1.35 191.03,1.66l0 -11.42 -359.26 -0.22c-49.52,32.19 -61.26,32.65 -94.08,79.88z"/>
   <path class="fil3" d="M3879.56 1568.23c60.98,-1.86 145.11,-56.86 182.28,-83.47 69.88,-50.01 82.65,-121.52 122.53,-153.27 -6.14,74.36 -57.11,149.26 -100.67,183.63 -74.67,58.93 -178.29,54.73 -201.66,89.31 12.16,19.66 -2.59,8.27 19.91,13.42 30.71,7.04 154.6,-24.2 203.79,-63.55 90.24,-72.18 87.3,-154.49 126.49,-177.98 27.91,12.99 43.31,48.7 60.36,74.41 19.8,29.85 38.47,50.24 62.12,73.63 55.74,55.13 122.84,59.73 201.56,24.44l-3.69 -70.16c-74.51,-311.29 -391.5,-377.22 -575.82,-171.86 -57.31,63.85 -96,146.48 -97.2,261.45z"/>
   <path class="fil3" d="M3889.68 3688.1l2.53 77.29c218.3,44.2 551.91,76.99 746.95,-9.11l2.8 -52.09c-103.45,-59.62 -138.28,-42.95 -240.7,-177.54 -115.2,-151.38 -93.98,-210.42 -135.17,-287.96 -18.88,42.96 -23.07,118.21 -35.33,167.93 -37.27,151.26 -158.47,285.62 -341.08,281.48z"/>
   <path class="fil3" d="M2860.59 6481.15c122.27,29.49 274.17,-11.68 342.54,-80.72 95.27,-96.21 97.93,-183.65 101.65,-351l-71.38 -41.36c-46.26,-21.58 -94.12,-73.45 -165.62,-73.17 -57.6,-0.31 -128,-5.94 -191.03,-1.66 41.66,35.67 55.12,24.89 101.85,108.35 72.6,129.69 37.66,322.88 -63.96,400.46 -15.82,12.08 -45.84,25.17 -54.05,39.1z"/>
   <path class="fil3" d="M4216.7 772.3c-259.58,66.69 -314.06,402.09 74.68,381.55 118.71,-6.28 227.52,-97.22 191.24,-231.71 -25.57,-94.78 -143.77,-181.22 -265.92,-149.84z"/>
   <path class="fil3" d="M3296.29 6306.42l1.63 10.26 13.95 -27.45 342.47 -6.33c78.93,1.52 374.37,-74.42 328.52,-235.66l-645.13 -3.91c-2.64,46.94 -6.5,92.69 -14.39,138.39 -7.19,41.57 -26.45,91.91 -27.05,124.7z"/>
   <path class="fil3" d="M3004.16 5627.85c-13.86,-16.9 -2.03,22.62 -12.84,-21.44l6.81 -71.33c8.24,-35.54 20.15,-59.73 35.92,-80.82l40.68 1.72c31.58,64.7 -14.52,138.83 -45.97,177.23l-24.6 -5.36zm132.09 -259.48c2.72,-47.85 74.42,-205.01 150.4,-194.09 21.64,96.33 -93.37,187.59 -150.4,194.09zm37.05 -291.86c3.94,-3.41 10.51,-9.93 19.79,-15.64 29.4,-18.09 48.74,-20.59 78.59,-15.16 7.92,33.7 9.53,22.88 -12.99,47 -80.67,86.39 -168.07,34.47 -85.39,-16.2zm-203.39 550.5l-3.89 78.25 33.58 -5.09c94.79,-8.65 96.33,-104.72 116.84,-191.17 48.97,-206.39 260.93,-162.41 240.21,-354.95 -7.97,-73.97 -42.57,-187.82 -126.38,-157.99 -71.22,25.35 -204.74,247.21 -246.89,354.85 -60.88,155.46 -55.26,369.91 -55.03,547.24 20.69,-13.55 10.86,8.68 13.76,-34.31 6.68,-98.82 -9.17,-206.23 19.12,-331.62 20.45,-90.68 51.15,-136.01 90.57,-205.75 6.03,-10.66 8.98,-18.43 18.35,-32.47 7.14,-10.7 5.04,-7.11 11.92,-15.75l9.46 -10.39c-31.32,89.93 -122.11,202.41 -121.62,359.15z"/>
   <path class="fil3" d="M4301.54 4921.78c92.41,-35.99 141.65,-271.34 277.75,-337.22l3.69 -118.17c-150.12,-67.47 -172.25,-64.73 -221.31,103.96 -25.55,87.83 -62.64,257 -60.13,351.43z"/>
   <path class="fil0" d="M2555.83 5898.55l332.26 -0.44c-19.97,-57.14 -55.35,-108.55 -86.82,-144.98 -59.15,-68.44 -79.93,-31.88 -186.17,-48.54 -5.98,17.02 0.05,20.21 -8.47,6.17 -51.27,0 -71.76,-5.28 -110.07,-8.47 3.55,42.56 43.74,160.53 59.27,196.26z"/>
   <path class="fil0" d="M4297.25 4713.49c52.71,-77.62 -9.23,-389.82 219.29,-311.94 60.71,20.69 131,60.28 207.05,63.31 72.16,2.88 201.33,41.05 244.42,-15.63 -46.81,-108.07 -360.36,-35.44 -520.37,-71.55 -74.54,-16.83 -91.13,-40.92 -135.7,-69.28l-14.69 405.09z"/>
   <path class="fil2" d="M4159.5 6283.57l-316.76 -3.03 -0.02 -10.02c-37.4,9.39 -70.68,23.34 -109.87,32.76 -44.39,10.66 -71.04,4.43 -84.68,42.48 89.01,51.15 184.05,8.83 279.07,7.18 96.64,-1.68 213.89,47 232.26,-69.37z"/>
   <path class="fil0" d="M3868.93 3932.76l-9.48 -245.54c-16.17,-12.05 -34.65,-17.93 -54.48,-29.67 -24.17,-14.31 -33.6,-26.59 -55.34,-39.16 -32.12,52.03 -63.22,92.94 -28.41,173.45 21.39,49.49 73.09,88.67 138.48,90.12 0,5.96 -0.59,19.73 0.32,25.1l8.91 25.7z"/>
   <path class="fil0" d="M3182.36 5898.41c-17.62,-36.53 -44.7,-61.82 -67.68,-94.57 -11.11,-15.83 -19.17,-27.57 -31.71,-44.45 -15.76,-21.2 -21.59,-30.47 -27.61,-58.86 -16.41,7.64 -10.33,8.53 -26.78,8.89 -32.84,0.74 -9.96,13.9 -28.98,-9.25l-33.58 5.09 3.89 -78.25c-15.13,46.43 -8.87,210.4 -7.58,271.06l220.03 0.34z"/>
   <path class="fil3" d="M3842.72 6270.52l0.02 10.02 316.76 3.03c-4.77,-46.79 -18.01,-83.33 -38.34,-113.01 -83.87,-6.6 -112.94,-16.86 -164.22,27.09 -58.2,49.88 -95.38,53.48 -114.22,72.87z"/>
   <path class="fil0" d="M4257.18 5786.96c1.37,-1.5 3.43,-5.93 4,-4.6l32.73 -43.79c30.51,-36.34 103.78,-99.79 107.65,-146.34 -49.71,-4.14 -78.96,-39.61 -127,-50.8l0 -78.62c-21.51,55.31 -10.72,245.88 -17.38,324.15z"/>
   <path class="fil3" d="M4153.55 2189.3c-4.43,36.68 -18.29,63.75 -29.9,91.7 75.49,29.31 126.56,22.03 190.89,-18.6l5.4 -80.18c-91.55,30.45 -66.94,36.61 -166.39,7.08z"/>
   <path class="fil3" d="M2518.35 5477.16c-11.08,9.38 -9.2,-16.28 -13.88,22.1 -1.59,13.03 2.97,25.41 6.91,35.73 4.39,11.49 22.6,43.59 26.95,49.6 12.5,17.28 79.78,62.99 113.74,27.14 40.62,-42.87 -96.26,-166.28 -133.72,-134.57z"/>
   <path class="fil3" d="M2297.36 4716c16.58,-42.94 -31.77,-92.76 -51.74,-117.5 -23.33,-28.91 -51.27,-74.67 -88.56,-88.19 -21.22,62.62 67.91,216.96 140.3,205.69z"/>
   <path class="fil3" d="M1928.74 4787.18l-14.56 9.18c-7.26,85.56 70.33,174.41 123.06,168.64 7.43,-73.09 -47.87,-120.97 -91.27,-159.77l-17.23 -18.05z"/>
   <path class="fil4" d="M2157.06 4510.31c37.29,13.52 65.23,59.28 88.56,88.19 19.97,24.74 68.32,74.56 51.74,117.5 -72.39,11.27 -161.52,-143.07 -140.3,-205.69zm-10.48 -5.36c-3.64,6.81 -4.93,-7.47 -7.88,21.02 -7.59,73.25 111.03,259.49 176.85,190.82 35.3,-36.83 -28.74,-110.39 -47.8,-131.67 -24.29,-27.11 -70.75,-93.44 -121.17,-80.17z"/>
   <path class="fil3" d="M4581.68 1794.87c155.11,3.01 99.14,-103.71 98.03,-104.91 -16.64,-17.91 -62.81,-5.25 -74.86,7.48 -7.59,8.02 -3.98,2.07 -9.43,16.98l-13.74 80.45z"/>
   <path class="fil1" d="M4229.95 1876.64c6.7,-56.6 24.34,-146.83 0.96,-192.54 -20.29,11.02 -18.91,3.21 -20.98,38.63 -1.19,20.39 0.9,46.65 0.61,68 -0.67,49.46 -15.99,78.76 -13.12,119.81 25.92,5.64 35.58,3.62 60,-9.61 26.18,-14.19 34.54,-18.76 41.83,-42.96 -38.85,-13.49 -39.84,4.3 -69.3,18.67z"/>
   <path class="fil1" d="M4129.73 1958.19c13.6,35.32 -7.43,6.84 19.75,34.06 8.15,8.16 16.93,15.3 25.99,24.45 84.14,84.96 168.36,-35.45 174,-57.61 -82.97,-4.81 -55.19,44.82 -109,46.1 -60.41,1.44 -14.59,-45.47 -110.74,-47z"/>
   <path class="fil3" d="M4609.48 4577.8c23.97,13.69 36.49,15.41 70.92,17.03l32.07 -85.34c-24.59,-10.87 -64.76,-26.72 -95.07,-22.22 -15.71,34.21 -15.87,52.94 -7.92,90.53z"/>
   <path class="fil3" d="M3788.44 1691.15c-20.32,84.83 17.61,106.31 98.09,107l-27.12 -109.64 -70.97 2.64z"/>
   <path class="fil4" d="M1928.74 4787.18l17.23 18.05c43.4,38.8 98.7,86.68 91.27,159.77 -52.73,5.77 -130.32,-83.08 -123.06,-168.64l14.56 -9.18zm0 0c-0.63,-0.34 13.18,-12.47 -15.33,-5.08 -65.56,17 37.38,213.49 136.43,193.87 16.66,-48.71 1.4,-91.21 -26.79,-120.98 -22.81,-24.08 -53.71,-61.85 -94.31,-67.81z"/>
   <path class="fil4" d="M2511.38 5534.99c-3.94,-10.32 -8.5,-22.7 -6.91,-35.73 4.68,-38.38 2.8,-12.72 13.88,-22.1 37.46,-31.71 174.34,91.7 133.72,134.57 -33.96,35.85 -101.24,-9.86 -113.74,-27.14 -4.35,-6.01 -22.56,-38.11 -26.95,-49.6zm-2.97 -75.54c-8.06,7.38 -12.77,-8.17 -15.5,30.75 -7.34,104.8 117.53,178.53 174.28,128.73 58.06,-50.95 -108.49,-205.49 -158.78,-159.48z"/>
   <path class="fil0" d="M3233.4 6008.07l51.97 -1.62c-22.54,-30.56 -49.17,-46.1 -71.41,-83.67l-146.18 0.7 0 11.42c71.5,-0.28 119.36,51.59 165.62,73.17z"/>
   <path class="fil4" d="M3151.08 5352.58c9.24,-59.12 76.15,-149.96 115.95,-166.97 20.32,61.24 -86.75,151 -115.95,166.97zm-14.83 15.79c57.03,-6.5 172.04,-97.76 150.4,-194.09 -75.98,-10.92 -147.68,146.24 -150.4,194.09z"/>
   <path class="fil4" d="M4351.72 1919.81c45.7,37.03 55.94,32.75 101.87,8.97 17.11,-76.1 -40.44,-82.71 -98.57,-57.65l-3.3 48.68z"/>
   <path class="fil4" d="M4025.95 1871.09c-20.79,83.22 43.89,85.57 97.29,57.46 16.92,-75.68 -40.42,-82.41 -97.29,-57.46z"/>
   <path class="fil4" d="M2542.87 5240.17c34.35,-4.89 47.99,18.7 64.65,38.12 22.73,26.49 37.49,36.56 51.14,70.71 -47.21,-19.99 -105.3,-64.78 -115.79,-108.83zm-3.74 -22.28c-0.62,0.83 -34.08,4.66 3.37,57.25 11.77,16.53 22.11,25.22 38.17,38.57 25.45,21.15 58.61,59.95 98.05,54.27 5.04,-40.68 -28.96,-68.39 -48.28,-95.85 -16.4,-23.31 -52.88,-67.25 -91.31,-54.24z"/>
   <path class="fil4" d="M2260.23 5169.16c-22.24,-10.4 -126.21,-87.73 -103.78,-110.91 25.78,-26.67 92.24,83.67 103.78,110.91zm24.12 16.67c3.83,-7.25 12.36,14.6 4.8,-21.17 -1.04,-4.96 -70.69,-140.38 -144.69,-127.73 -24.25,66.81 111.38,161.88 139.89,148.9z"/>
   <path class="fil0" d="M5199.45 4172.47c-35.46,-123.5 -184.89,-202.8 -344.06,-214.91 2.09,1.34 5.06,1.02 6.24,4.06l19.73 9.18c10.36,3.37 16.14,3.17 26.84,5.79 18.13,4.44 34.83,10.87 50.75,16.75 96.57,35.67 159.96,76.37 218.01,154.34 1.53,2.06 7.5,9.71 7.67,9.91 10.55,12.31 6.91,7.13 14.82,14.88z"/>
   <path class="fil3" d="M4018.47 6087.47c13.6,20.33 -0.34,14.21 19.16,40.22l75.56 -0.03 2.93 -75.49 -96.48 -0.68 -1.17 35.98z"/>
   <path class="fil3" d="M3004.16 5627.85c30.65,-6.41 19.47,0.82 34.44,-27.01 22.21,-41.26 44.49,-90.82 16.76,-126.39 -28.16,8.08 -33.02,20.03 -44.74,55.84 -12.04,36.76 -10.35,58.01 -6.46,97.56z"/>
   <path class="fil3" d="M3151.08 5352.58c29.2,-15.97 136.27,-105.73 115.95,-166.97 -39.8,17.01 -106.71,107.85 -115.95,166.97z"/>
   <path class="fil1" d="M4025.78 1752.39c-15.19,-4.05 -9.67,0.02 -16.88,2.96 -8.31,14.69 12.01,38.23 24.43,47.66 43.67,33.15 148.44,12.43 134.01,-55.69 -39.53,16.06 -5.58,6.59 -36.42,26.84 -52.34,34.36 -82.72,-15.79 -105.14,-21.77z"/>
   <path class="fil0" d="M2614.44 6003.14c32.82,-47.23 44.56,-47.69 94.08,-79.88l-127.68 0.04 -2.05 77.59 35.65 2.25z"/>
   <path class="fil4" d="M2380.53 5059.95c-12.52,-27.76 -25.9,-35.59 -23.39,-64.35 38.1,3.65 97.48,80.74 113.38,115.07l-24.43 7.3c19.82,12.35 19.54,10.37 45.67,13.33 -5.91,-50.21 -49.3,-107.49 -84.37,-135.7 -77.54,-62.36 -97.51,23.15 -26.86,64.35z"/>
   <path class="fil1" d="M4419.74 1696.64c23.81,7.97 31.35,9.67 58.13,9.01 58.08,-1.45 45.73,-13.59 48.44,-16.55 -16.34,-7.62 -78.8,-10.12 -117.86,-24.42 -31.57,-11.56 -82.03,-19.79 -97.69,15.95 18.6,15.11 61.85,0.22 108.98,16.01z"/>
   <path class="fil1" d="M4409.58 1773.78c-52.33,35.37 -72.14,-16.77 -107.81,-23.81 -18.25,93.3 164.78,89.73 145.93,-3.21 -42.95,16.11 -4.43,4.25 -38.12,27.02z"/>
   <path class="fil1" d="M3962.95 1689.1c4.27,4.72 -2.22,9.42 24.37,14.83 31.88,6.49 61.29,-0.33 88.91,-9.93 51.53,-17.89 77.44,7.13 102.16,-13.37 -8.97,-19.66 -15.12,-22.68 -48.19,-23.99 -21.58,-0.86 -36.9,4.13 -54.91,10.6 -40.88,14.69 -92.35,12.79 -112.34,21.86z"/>
   <path class="fil4" d="M3004.16 5627.85c-3.89,-39.55 -5.58,-60.8 6.46,-97.56 11.72,-35.81 16.58,-47.76 44.74,-55.84 27.73,35.57 5.45,85.13 -16.76,126.39 -14.97,27.83 -3.79,20.6 -34.44,27.01zm0 0l24.6 5.36c31.45,-38.4 77.55,-112.53 45.97,-177.23l-40.68 -1.72c-15.77,21.09 -27.68,45.28 -35.92,80.82l-6.81 71.33c10.81,44.06 -1.02,4.54 12.84,21.44z"/>
   <path class="fil3" d="M3285.37 6006.45l20.11 -3.35 -0.05 -78.52 -91.47 -1.8c22.24,37.57 48.87,53.11 71.41,83.67z"/>
   <path class="fil4" d="M3173.3 5076.51l80.33 -12.58c-8.04,16.37 -20.61,31.85 -37.19,45.83 -21.06,17.78 -34.24,18.61 -61.69,8.33 1.02,-32.6 -0.56,-27.15 18.55,-41.58zm0 0c-82.68,50.67 4.72,102.59 85.39,16.2 22.52,-24.12 20.91,-13.3 12.99,-47 -29.85,-5.43 -49.19,-2.93 -78.59,15.16 -9.28,5.71 -15.85,12.23 -19.79,15.64z"/>
   <path class="fil3" d="M2542.87 5240.17c10.49,44.05 68.58,88.84 115.79,108.83 -13.65,-34.15 -28.41,-44.22 -51.14,-70.71 -16.66,-19.42 -30.3,-43.01 -64.65,-38.12z"/>
   <path class="fil3" d="M2156.45 5058.25c-22.43,23.18 81.54,100.51 103.78,110.91 -11.54,-27.24 -78,-137.58 -103.78,-110.91z"/>
   <path class="fil3" d="M3173.3 5076.51c-19.11,14.43 -17.53,8.98 -18.55,41.58 27.45,10.28 40.63,9.45 61.69,-8.33 16.58,-13.98 29.15,-29.46 37.19,-45.83l-80.33 12.58z"/>
   <path class="fil5" d="M4018.47 6087.47l5.48 46.99 97.6 -2.58 -4.05 -86.26c-29.28,-3.22 -72.39,-8.98 -97.86,5.87l96.48 0.68 -2.93 75.49 -75.56 0.03c-19.5,-26.01 -5.56,-19.89 -19.16,-40.22z"/>
   <path class="fil0" d="M2296.47 5338.23c-12.66,-26.43 -15.56,-27.18 -31.14,-48.07 -7.06,-9.47 -10.27,-16.27 -18.04,-24.26 -20.94,-21.54 -3.43,-4.99 -21.66,-15.48 4.87,24.59 10.11,37.7 23.56,55.78 15.81,21.25 20.78,26.03 47.28,32.03z"/>
   <path class="fil0" d="M2866.2 5710.76c11.46,23.6 34.86,57.56 40.9,73.19l5.46 -81.66c-21.07,9.39 -15.48,7.86 -46.36,8.47z"/>
  </g>
 </g>
</svg>
