<?xml version="1.0" encoding="UTF-8"?>
<!DOCTYPE svg PUBLIC "-//W3C//DTD SVG 1.1//EN" "http://www.w3.org/Graphics/SVG/1.1/DTD/svg11.dtd">
<!-- Creator: CorelDRAW 2021 (64-Bit) -->
<svg xmlns="http://www.w3.org/2000/svg" xml:space="preserve" width="42.3332mm" height="4.2332mm" version="1.1" style="shape-rendering:geometricPrecision; text-rendering:geometricPrecision; image-rendering:optimizeQuality; fill-rule:evenodd; clip-rule:evenodd"
viewBox="0 0 4233.32 423.32"
 xmlns:xlink="http://www.w3.org/1999/xlink"
 xmlns:xodm="http://www.corel.com/coreldraw/odm/2003">
 <defs>
  <style type="text/css">
   <![CDATA[
    .fil1 {fill:#64FCD9}
    .fil0 {fill:#E6E6E6}
   ]]>
  </style>
 </defs>
 <g id="Layer_x0020_1">
  <metadata id="CorelCorpID_0Corel-Layer"/>
  <path class="fil0" d="M3027.87 356.79l33.1 0 0 -252.06 24.51 62.05c7.77,21.85 16.5,41.14 24.16,62.41 7.59,21.03 15.29,40.77 23.7,62.87l24.38 64.73 43.28 0c11.84,-24.66 68.36,-179.48 84.05,-218.94 2.01,-5.04 3.33,-9.19 5.42,-14.95l6.35 -14.02c0.19,-0.34 0.58,-1.1 0.94,-1.61l0 249.52 33.09 0 0 -287.71c-62.97,0 -50.64,-14.91 -77.33,60.15 -6.11,17.19 -66.57,185.42 -75.43,191.91 -0.94,-11.35 -42.08,-112.09 -47.3,-125.83 -8.43,-22.17 -15.58,-41.51 -23.97,-62.6 -4.68,-11.77 -22.09,-53.49 -22.93,-63.63l-56.02 0 0 287.71z"/>
  <path class="fil0" d="M647.27 142.91l0 140.04c0,63.24 45.84,78.93 101.85,78.93 48.45,0 124.76,4.49 124.76,-71.29l0 -35.65c-39.33,0 -32.89,-2.97 -33.1,22.92 -0.5,61.95 -46.24,50.92 -109.49,50.92 -35.87,0 -50.92,-19.95 -50.92,-56.02l0 -124.75c0,-63.12 54.56,-53.47 109.48,-53.47 49.42,0 50.93,29.88 50.93,63.65l33.1 0c0,-47.28 -5.04,-89.64 -68.86,-94.09 -15.4,-1.08 -31.51,-3.55 -45.7,-2.71 -11,0.66 -9.42,2.03 -20.37,2.61 -8.16,0.43 -17.4,-0.61 -25.44,0.03 -37.67,2.96 -66.24,32.43 -66.24,78.88z"/>
  <path class="fil0" d="M2511.01 331.33c-54.34,0 -50.92,-28.23 -50.92,-86.57 0,-13.78 1.73,-40.55 6.15,-49.86 6.4,-13.5 21.42,-18.89 39.68,-18.89 70.57,0 66.2,42.49 66.2,96.75 0,40.17 -21.58,58.57 -61.11,58.57zm61.11 -155.32l-3.48 -4.16c-1.87,-2.19 -1.76,-2.12 -3.54,-4.09 -2.46,-2.71 -6.22,-6.78 -8.88,-8.94 -18.22,-14.75 -61.66,-14.37 -82.93,-7.8 -48.98,15.15 -46.3,59.06 -46.3,111.56 0,60.96 10.23,99.3 81.48,99.3 47.61,0 55.8,-22.26 63.65,-28.01l0 22.92 30.55 0 0 -287.71 -30.55 0 0 106.93z"/>
  <path class="fil0" d="M3422.51 214.21c0,-38.23 31.98,-38.2 63.66,-38.2 51.59,0 48.37,25.3 48.37,56.02l-112.03 0 0 -17.82zm-33.09 2.54c0,108.28 -10.47,145.13 99.29,145.13 22.09,0 41.22,-4.39 55,-13.76 17.5,-11.9 23.93,-29.61 23.93,-52.44l-33.1 0c-0.9,40.37 -37.69,35.65 -68.74,35.65 -50.26,0 -43.29,-35.02 -43.29,-71.29l145.13 0c0,-45.06 8.84,-112.03 -63.65,-112.03 -49.75,0 -114.57,-10.65 -114.57,68.74z"/>
  <path class="fil0" d="M2740.16 176.01c53.43,0 63.65,5.9 63.65,56.02l-114.57 0c0,-42.29 10.64,-56.02 50.92,-56.02zm-84.02 68.75c0,74.06 0.9,117.12 86.57,117.12 54.24,0 94.2,-11.87 94.2,-66.2l-35.64 0c0,40.76 -32.11,35.65 -71.29,35.65 -42.73,0 -40.74,-36.78 -40.74,-71.29l147.67 0c0,-111.14 -13.38,-112.03 -117.12,-112.03 -58.02,0 -63.65,51.17 -63.65,96.75z"/>
  <path class="fil0" d="M2152.01 176.01l12.73 0c35.58,0 50.92,10.08 50.92,45.83l0 10.19 -114.57 0c0,-41.07 9.48,-56.02 50.92,-56.02zm-84.02 61.11c0,86.13 -2.25,124.76 94.21,124.76 24.42,0 47.07,-3.83 62.28,-14.11 14.02,-9.47 23.8,-30.55 24.29,-52.09l-35.65 0c0,39.43 -31.49,35.65 -66.2,35.65 -47.44,0 -45.83,-27.88 -45.83,-71.29l147.68 0c0,-109.72 -12.41,-112.03 -117.13,-112.03 -53.83,0 -63.65,44.64 -63.65,89.11z"/>
  <path class="fil0" d="M3840.07 293.13c0,-12.94 3.45,-25.29 12.21,-31.07 9.5,-6.28 99.82,-21.15 99.82,28.53 0,37.13 -21.64,40.74 -66.2,40.74 -11.39,0 -27.06,-2.01 -33.77,-6.97 -7.05,-5.2 -12.06,-19.69 -12.06,-31.23zm-17.82 -91.65l25.46 0c0,-32.78 28.09,-28.01 58.56,-28.01 50.98,0 45.83,25.1 45.83,73.83 -34.24,-22.92 -39.5,-17.82 -89.11,-17.82 -78.52,0 -59.35,101.18 -38.93,117.86 19.77,16.16 71.37,17.15 100.68,10.09 17.33,-4.17 16.31,-8.52 27.36,-15.92l0 15.28 30.56 0 0 -155.31c0,-64.61 -58.08,-53.47 -114.58,-53.47 -23.29,0 -45.75,10.96 -50.81,33.38 -3.26,14.4 -3.7,20.09 4.98,20.09z"/>
  <path class="fil0" d="M4036.12 198.93c0,77.47 36.37,56.03 114.31,63.92 31.92,3.23 30.82,19.4 30.82,43.02 0,42.23 -90.59,26.33 -99.93,20.99 -20.01,-11.44 -4.67,-31.18 -19.73,-31.18l-25.47 0c0,69.27 35.87,66.2 109.49,66.2 64.98,0 68.74,-35.81 68.74,-76.38 0,-16.7 -4.56,-26.49 -13.24,-35.14 -26.01,-25.91 -98.79,-8.76 -129.34,-23.42 -14.24,-61.14 20.68,-50.93 76.38,-50.93 18.28,0 29.14,8.44 30.55,25.47l30.56 0c0,-64.16 -52.58,-53.47 -114.58,-53.47 -33.21,0 -58.56,17.49 -58.56,50.92z"/>
  <path class="fil0" d="M1016.46 331.33c-70.86,0 -68.75,-8.04 -68.75,-91.66 0,-54.52 9.34,-63.66 61.11,-63.66 58.61,0 53.47,27.87 53.47,91.66 0,42.67 -4,63.66 -45.83,63.66zm-101.85 -104.39c0,36.3 -5.12,89.67 19.62,115.32 17.41,18.07 38.07,19.62 69.5,19.62 102.51,0 91.65,-48.35 91.65,-134.94 0,-89.42 -58.67,-78.93 -114.57,-78.93 -22.93,0 -38.86,8.5 -50.4,20.89 -11.4,12.22 -15.8,35.22 -15.8,58.04z"/>
  <path class="fil0" d="M1782.83 265.13c0,-77.83 0.87,-89.12 63.65,-89.12 61.65,0 50.93,37.6 50.93,106.94 0,53.83 -29.57,48.38 -71.3,48.38 -39.53,0 -43.28,-23.61 -43.28,-66.2zm-33.1 -20.37c0,78.51 1.82,117.12 89.11,117.12 104.1,0 91.66,-47.7 91.66,-140.04 0,-85.46 -64.95,-73.83 -114.57,-73.83 -24.67,0 -44.88,10.72 -54.39,27.08 -9.82,16.9 -11.81,43.95 -11.81,69.67z"/>
  <path class="fil0" d="M1380.55 112.36l0 40.74 -22.92 0c0,32.04 -3.89,28.01 22.92,28.01 0,35.01 -4.45,134.05 10.16,157.88 19.16,31.22 93.12,27.99 115.29,5.76 11.35,-11.38 12.9,-39.02 14.58,-59.25 -16.95,-3.96 -12.75,-2.55 -33.1,-2.55 0,43.99 -9.56,48.38 -43.28,48.38 -19.68,0 -30.55,-10.87 -30.55,-30.56l0 -119.66 91.66 0c10.39,0 7.63,-7.98 7.63,-28.01l-99.29 0c0,-55.96 6.15,-48.37 -25.47,-48.37 -5.86,0 -7.63,1.76 -7.63,7.63z"/>
  <path class="fil1" d="M112.59 125.09l-55.42 -54.06 -38.21 36.82 90.46 91.7c10.07,-3.14 13.94,-10.08 20.36,-16.54l127.94 -126.66c-6.92,-10.34 -25.57,-31.45 -35.65,-38.19 -11.52,3.08 -105.03,100.29 -109.48,106.93z"/>
  <path class="fil0" d="M1176.86 173.47l0 -20.37 -28.01 0 0 203.69 30.55 0 0 -124.76c0,-37.69 23.49,-56.02 61.11,-56.02 34.3,0 45.83,14.01 45.83,48.38l0 132.4 30.56 0 0 -155.31c0,-16.8 -7.93,-30.11 -17.06,-38.96 -20.62,-20.01 -81.73,-18.55 -102.19,-6.46 -8.63,5.1 -12.96,12.17 -20.79,17.41z"/>
  <path class="fil0" d="M3626.2 112.36l0 40.74 -25.46 0c0,32.43 -4.33,28.01 25.46,28.01l0 122.21c0,44.94 27.17,58.56 68.75,58.56 54.44,0 68.74,-19.71 68.74,-73.84 0,-7.28 -15.83,-5.09 -25.46,-5.09 -22.17,0 17.09,48.38 -48.38,48.38 -27.89,0 -33.09,-18.46 -33.09,-45.83l0 -104.39 94.2 0c10.39,0 7.64,-7.98 7.64,-28.01l-101.84 0 0 -48.37c-21.72,0 -30.56,-3 -30.56,7.63z"/>
  <path class="fil1" d="M110.66 331.94c-3.19,-4.46 -49.66,-48.58 -54.08,-51.53 -13.32,8.91 -26.76,19.83 -35.64,33.09 2.96,11.1 82.27,87.08 89.11,91.66 10.85,-2.9 65.66,-61.84 74.47,-70.65l73.2 -74.47c-6,-8.97 -29.73,-29.98 -38.19,-35.65l-108.87 107.55z"/>
  <path class="fil1" d="M303.55 356.79l226.6 0c10.74,0 7.92,-11.5 7.73,-22.83 -0.17,-10.21 -0.09,-20.43 -0.09,-30.64 -26.26,-6.12 -193.99,-2.55 -234.24,-2.55l0 56.02z"/>
  <path class="fil1" d="M303.55 150.55l226.6 0c5.87,0 7.64,-1.77 7.64,-7.64l0 -45.83 -234.24 0 0 53.47z"/>
  <path class="fil0" d="M1602.06 173.47l0 -20.37 -28.01 0 0 203.69 30.56 0 0 -129.85c0,-60.62 61.86,-56.45 75.11,-42.01 8.22,8.97 8.91,26.19 8.91,39.46l30.55 0c0,-19.01 0.46,-43.98 -10.79,-57.96 -20.19,-25.06 -70.28,-22.06 -88.53,-10.8 -9.95,6.14 -10.37,12.39 -17.8,17.84z"/>
  <polygon class="fil0" points="1983.97,356.79 2017.07,356.79 2017.07,69.08 1983.97,69.08 "/>
 </g>
</svg>
